<svg width="117" height="241" viewBox="0 0 117 241" fill="none" xmlns="http://www.w3.org/2000/svg">
<path opacity="0.05" d="M43.1356 2.22869e-05C28.0685 0.0110691 13.1127 4.12941 -4.04399 12.3227C-5.03748 12.7972 -5.88071 13.5664 -6.47227 14.5378C-7.06382 15.5092 -7.37851 16.6414 -7.37848 17.7981V39.6647C-14.396 47.3891 -19.2095 53.5882 -21.412 57.4863C-22.6431 59.6651 -23.362 61.3534 -23.7859 62.7038C-24.2098 64.0542 -24.338 65.8226 -24.338 65.8226V101.841C-24.338 111.563 -19.8589 120.159 -13.0537 125.654L-29.947 269.176C-30.0492 269.963 -30.0033 270.764 -29.8121 271.531C-29.6208 272.299 -29.2879 273.019 -28.8327 273.65C-28.3775 274.28 -27.809 274.808 -27.1602 275.204C-26.5114 275.599 -25.7951 275.854 -25.053 275.953C-24.3108 276.052 -23.5574 275.994 -22.8365 275.782C-22.1157 275.57 -21.4416 275.208 -20.8534 274.717C-20.2652 274.226 -19.7745 273.617 -19.4098 272.923C-19.0452 272.23 -18.8137 271.466 -18.729 270.677L-2.29946 131.071C-0.28828 131.557 1.78325 131.856 3.92785 131.856H8.95166L-1.69219 239.278C-1.79258 240.073 -1.74185 240.882 -1.54299 241.656C-1.34413 242.43 -1.00118 243.154 -0.534401 243.785C-0.0676193 244.416 0.513523 244.941 1.17468 245.329C1.83583 245.717 2.56359 245.961 3.31495 246.046C4.06631 246.13 4.82603 246.054 5.5492 245.822C6.27238 245.589 6.94436 245.206 7.52541 244.693C8.10646 244.18 8.58481 243.548 8.93219 242.836C9.27956 242.123 9.48892 241.344 9.54789 240.544L20.3242 131.856H66.6758L77.4521 240.544C77.5111 241.344 77.7204 242.123 78.0678 242.836C78.4152 243.548 78.8935 244.18 79.4746 244.693C80.0556 245.206 80.7276 245.589 81.4508 245.822C82.174 246.054 82.9337 246.13 83.685 246.046C84.4364 245.961 85.1642 245.717 85.8253 245.329C86.4865 244.941 87.0676 244.416 87.5344 243.785C88.0012 243.154 88.3441 242.43 88.543 241.656C88.7419 240.882 88.7926 240.073 88.6922 239.278L78.0483 131.856H83.0721C85.2167 131.856 87.2883 131.557 89.2995 131.071L105.729 270.677C105.814 271.466 106.045 272.23 106.41 272.923C106.775 273.617 107.265 274.226 107.853 274.717C108.442 275.208 109.116 275.57 109.837 275.782C110.557 275.994 111.311 276.052 112.053 275.953C112.795 275.854 113.511 275.599 114.16 275.204C114.809 274.808 115.377 274.28 115.833 273.65C116.288 273.019 116.621 272.299 116.812 271.531C117.003 270.764 117.049 269.963 116.947 269.176L100.054 125.654C106.859 120.159 111.338 111.563 111.338 101.841V65.8226C111.338 65.8226 111.21 64.0542 110.786 62.7038C110.362 61.3534 109.643 59.6651 108.412 57.4863C106.21 53.5882 101.396 47.3891 94.3785 39.6647V17.7981C94.379 16.6322 94.0597 15.4913 93.4598 14.5148C92.8598 13.5383 92.005 12.7684 90.9998 12.2992C73.3828 4.08323 58.2028 -0.0110227 43.1356 2.22869e-05ZM43.1577 11.584C55.3854 11.579 67.9821 15.2927 83.0721 22.0073V41.8104C83.0724 43.4024 83.6682 44.9291 84.7283 46.0547C92.986 54.8235 96.94 60.5072 98.7177 63.6535C99.3943 64.8509 99.5582 65.3537 99.7335 65.8226H-12.7335C-12.5582 65.3537 -12.3943 64.8509 -11.7177 63.6535C-9.93996 60.5072 -5.98602 54.8235 2.27165 46.0547C3.33183 44.9291 3.92756 43.4024 3.92785 41.8104V21.9721C18.5854 15.3021 30.9407 11.5891 43.1577 11.584ZM32.1937 23.8012C31.4446 23.7899 30.7008 23.9369 30.0057 24.2335C29.3105 24.5302 28.6778 24.9706 28.1443 25.5291C27.6108 26.0877 27.1872 26.7532 26.898 27.4872C26.6089 28.2211 26.46 29.0087 26.46 29.8042C26.46 30.5998 26.6089 31.3874 26.898 32.1213C27.1872 32.8553 27.6108 33.5208 28.1443 34.0794C28.6778 34.6379 29.3105 35.0783 30.0057 35.375C30.7008 35.6716 31.4446 35.8186 32.1937 35.8073H54.8063C55.5554 35.8186 56.2992 35.6716 56.9943 35.375C57.6895 35.0783 58.3222 34.6379 58.8557 34.0794C59.3892 33.5208 59.8128 32.8553 60.102 32.1213C60.3911 31.3874 60.54 30.5998 60.54 29.8042C60.54 29.0087 60.3911 28.2211 60.102 27.4872C59.8128 26.7532 59.3892 26.0877 58.8557 25.5291C58.3222 24.9706 57.6895 24.5302 56.9943 24.2335C56.2992 23.9369 55.5554 23.7899 54.8063 23.8012H32.1937ZM-13.0316 77.8287H37.8468V119.85H16.1506C15.8332 119.794 15.5118 119.766 15.19 119.768C14.9088 119.773 14.6283 119.801 14.3509 119.85H3.92785C-5.50436 119.85 -13.0316 111.857 -13.0316 101.841V77.8287ZM49.1532 77.8287H100.032V101.841C100.032 111.857 92.5044 119.85 83.0721 119.85H72.6822C72.3394 119.789 71.992 119.761 71.6444 119.768C71.3853 119.776 71.127 119.804 70.8715 119.85H49.1532V77.8287Z" fill="#495A57"/>
</svg>
