<svg width="104" height="139" viewBox="0 0 104 139" fill="none" xmlns="http://www.w3.org/2000/svg">
<path d="M70 0.280029C45.8423 0.280029 26.32 19.8024 26.32 43.96V58.52H11.76C5.77387 58.52 0.839966 63.4539 0.839966 69.44V156.8C0.839966 162.786 5.77387 167.72 11.76 167.72H128.24C134.226 167.72 139.16 162.786 139.16 156.8V69.44C139.16 63.4539 134.226 58.52 128.24 58.52H113.68V43.96C113.68 19.8024 94.1576 0.280029 70 0.280029ZM70 7.56003C90.2617 7.56003 106.4 23.6983 106.4 43.96V58.52H33.6V43.96C33.6 23.6983 49.7382 7.56003 70 7.56003ZM11.76 65.8H128.24C130.259 65.8 131.88 67.421 131.88 69.44V156.8C131.88 158.819 130.259 160.44 128.24 160.44H11.76C9.7409 160.44 8.11997 158.819 8.11997 156.8V69.44C8.11997 67.421 9.7409 65.8 11.76 65.8ZM70 84C60.0042 84 51.8 92.2042 51.8 102.2H59.08C59.08 96.1713 63.9712 91.28 70 91.28C76.0287 91.28 80.92 96.1713 80.92 102.2C80.92 105.129 80.2375 106.736 79.3275 108.001C78.4175 109.267 77.1662 110.191 75.5737 111.073C73.9812 111.954 72.1612 112.736 70.3412 113.916C68.5212 115.096 66.36 117.428 66.36 120.4V127.68H73.64V120.4C73.64 120.286 73.2987 120.542 74.2087 119.945C75.1187 119.348 76.9387 118.566 78.9862 117.443C81.0337 116.319 83.4225 114.84 85.2425 112.324C87.0625 109.807 88.2 106.366 88.2 102.2C88.2 92.2042 79.9957 84 70 84ZM66.36 131.32V138.6H73.64V131.32H66.36Z" fill="#E68314"/>
</svg>
