<svg width="109" height="138" viewBox="0 0 109 138" fill="none" xmlns="http://www.w3.org/2000/svg">
<path opacity="0.05" d="M54.2298 1.65536e-05C43.0576 0.00822162 31.9679 3.06714 19.2463 9.15273C18.5096 9.50519 17.8844 10.0765 17.4457 10.798C17.0071 11.5195 16.7738 12.3604 16.7738 13.2196V29.4611C11.5703 35.1984 8.00112 39.8029 6.36796 42.6982C5.45514 44.3164 4.92205 45.5704 4.60773 46.5735C4.29342 47.5765 4.19838 48.89 4.19838 48.89V75.6427C4.19838 82.8642 7.5196 89.2486 12.5656 93.3298L0.0393201 199.931C-0.036471 200.516 -0.00246664 201.111 0.13936 201.681C0.281187 202.251 0.528018 202.786 0.865551 203.254C1.20308 203.723 1.62461 204.115 2.1057 204.408C2.58679 204.702 3.11789 204.891 3.66821 204.965C4.21853 205.039 4.77714 204.996 5.31168 204.838C5.84621 204.681 6.34604 204.412 6.7822 204.047C7.21835 203.683 7.58217 203.23 7.85257 202.715C8.12297 202.199 8.29457 201.632 8.35744 201.046L20.5399 97.3532C22.0311 97.7147 23.5672 97.9366 25.1574 97.9366H28.8825L20.9901 177.725C20.9157 178.315 20.9533 178.916 21.1008 179.491C21.2482 180.066 21.5025 180.603 21.8486 181.072C22.1948 181.541 22.6257 181.931 23.1159 182.219C23.6062 182.508 24.1458 182.689 24.7029 182.751C25.2601 182.814 25.8234 182.758 26.3596 182.585C26.8958 182.412 27.3941 182.127 27.825 181.746C28.2558 181.365 28.6105 180.896 28.8681 180.367C29.1257 179.838 29.2809 179.259 29.3246 178.665L37.3153 97.9366H71.6848L79.6754 178.665C79.7191 179.259 79.8743 179.838 80.1319 180.367C80.3895 180.896 80.7442 181.365 81.175 181.746C81.6059 182.127 82.1042 182.412 82.6404 182.585C83.1766 182.758 83.74 182.814 84.2971 182.751C84.8542 182.689 85.3938 182.508 85.8841 182.219C86.3743 181.931 86.8052 181.541 87.1514 181.072C87.4975 180.603 87.7518 180.066 87.8992 179.491C88.0467 178.916 88.0843 178.315 88.0099 177.725L80.1175 97.9366H83.8426C85.4328 97.9366 86.9689 97.7147 88.4602 97.3532L100.643 201.046C100.705 201.632 100.877 202.199 101.147 202.715C101.418 203.23 101.782 203.683 102.218 204.047C102.654 204.412 103.154 204.681 103.688 204.838C104.223 204.996 104.781 205.039 105.332 204.965C105.882 204.891 106.413 204.702 106.894 204.408C107.375 204.115 107.797 203.723 108.134 203.254C108.472 202.786 108.719 202.251 108.861 201.681C109.002 201.111 109.036 200.516 108.961 199.931L96.4344 93.3298C101.48 89.2486 104.802 82.8642 104.802 75.6427V48.89C104.802 48.89 104.707 47.5765 104.392 46.5735C104.078 45.5704 103.545 44.3164 102.632 42.6982C100.999 39.8029 97.4297 35.1984 92.2262 29.4611V13.2196C92.2266 12.3536 91.9899 11.5062 91.545 10.7809C91.1001 10.0556 90.4663 9.4838 89.721 9.13531C76.658 3.03283 65.4021 -0.00818717 54.2298 1.65536e-05ZM54.2462 8.60409C63.313 8.60033 72.6534 11.3587 83.8426 16.346V31.0548C83.8428 32.2373 84.2846 33.3712 85.0707 34.2073C91.1937 40.7203 94.1256 44.9419 95.4438 47.2789C95.9454 48.1682 96.067 48.5417 96.197 48.89H12.803C12.933 48.5417 13.0546 48.1682 13.5562 47.2789C14.8744 44.9419 17.8063 40.7203 23.9293 34.2073C24.7154 33.3712 25.1572 32.2373 25.1574 31.0548V16.3199C36.0259 11.3657 45.1874 8.60784 54.2462 8.60409ZM46.1164 17.6784C45.5609 17.6701 45.0095 17.7792 44.494 17.9995C43.9785 18.2199 43.5094 18.547 43.1138 18.9618C42.7182 19.3767 42.4041 19.8711 42.1897 20.4162C41.9753 20.9613 41.8649 21.5463 41.8649 22.1372C41.8649 22.7281 41.9753 23.3131 42.1897 23.8582C42.4041 24.4034 42.7182 24.8977 43.1138 25.3126C43.5094 25.7274 43.9785 26.0546 44.494 26.2749C45.0095 26.4952 45.5609 26.6044 46.1164 26.596H62.8836C63.4391 26.6044 63.9906 26.4952 64.506 26.2749C65.0215 26.0546 65.4906 25.7274 65.8862 25.3126C66.2818 24.8977 66.5959 24.4034 66.8103 23.8582C67.0247 23.3131 67.1351 22.7281 67.1351 22.1372C67.1351 21.5463 67.0247 20.9613 66.8103 20.4162C66.5959 19.8711 66.2818 19.3767 65.8862 18.9618C65.4906 18.547 65.0215 18.2199 64.506 17.9995C63.9906 17.7792 63.4391 17.6701 62.8836 17.6784H46.1164ZM12.582 57.8075H50.3082V89.0191H34.2205C33.9852 88.9772 33.7469 88.9568 33.5082 88.9581C33.2997 88.9619 33.0917 88.9823 32.886 89.0191H25.1574C18.1634 89.0191 12.582 83.0821 12.582 75.6427V57.8075ZM58.6918 57.8075H96.418V75.6427C96.418 83.0821 90.8366 89.0191 83.8426 89.0191H76.1385C75.8843 88.9736 75.6267 88.9532 75.3689 88.9581C75.1768 88.9644 74.9854 88.9848 74.7959 89.0191H58.6918V57.8075Z" fill="#495A57"/>
</svg>
